<mxfile host="Electron" modified="2024-04-18T08:25:58.376Z" agent="Mozilla/5.0 (Macintosh; Intel Mac OS X 10_15_7) AppleWebKit/537.36 (KHTML, like Gecko) draw.io/23.1.5 Chrome/120.0.6099.109 Electron/28.1.0 Safari/537.36" etag="Si6gg4orejuuOob-UBvE" version="23.1.5" type="device">
  <diagram name="Page-1" id="R2I4hGwOUWfnA4z5xFKI">
    <mxGraphModel dx="2428" dy="1052" grid="1" gridSize="10" guides="1" tooltips="1" connect="1" arrows="1" fold="1" page="1" pageScale="1" pageWidth="850" pageHeight="1100" math="0" shadow="0">
      <root>
        <mxCell id="0" />
        <mxCell id="1" parent="0" />
        <mxCell id="w6o17WLRnTiQN1vq8QD2-3" value="" style="shape=process;whiteSpace=wrap;html=1;backgroundOutline=1;size=0.36666666666666664;" vertex="1" parent="1">
          <mxGeometry x="-660" y="170" width="1215" height="720" as="geometry" />
        </mxCell>
        <mxCell id="w6o17WLRnTiQN1vq8QD2-1" value="Data&lt;br&gt;Warehouse" style="shape=cylinder3;whiteSpace=wrap;html=1;boundedLbl=1;backgroundOutline=1;size=15;" vertex="1" parent="1">
          <mxGeometry x="-80" y="460" width="80" height="110" as="geometry" />
        </mxCell>
        <mxCell id="w6o17WLRnTiQN1vq8QD2-46" style="edgeStyle=orthogonalEdgeStyle;rounded=0;orthogonalLoop=1;jettySize=auto;html=1;exitX=0;exitY=0.5;exitDx=0;exitDy=0;exitPerimeter=0;" edge="1" parent="1" source="w6o17WLRnTiQN1vq8QD2-5" target="w6o17WLRnTiQN1vq8QD2-1">
          <mxGeometry relative="1" as="geometry" />
        </mxCell>
        <mxCell id="w6o17WLRnTiQN1vq8QD2-5" value="" style="verticalLabelPosition=bottom;html=1;verticalAlign=top;align=center;strokeColor=none;fillColor=#00BEF2;shape=mxgraph.azure.sql_database;" vertex="1" parent="1">
          <mxGeometry x="260" y="490" width="70" height="80" as="geometry" />
        </mxCell>
        <mxCell id="w6o17WLRnTiQN1vq8QD2-6" value="" style="outlineConnect=0;dashed=0;verticalLabelPosition=bottom;verticalAlign=top;align=center;html=1;shape=mxgraph.aws3.api_gateway;fillColor=#D9A741;gradientColor=none;" vertex="1" parent="1">
          <mxGeometry x="-370" y="530" width="50" height="60" as="geometry" />
        </mxCell>
        <mxCell id="w6o17WLRnTiQN1vq8QD2-7" value="" style="aspect=fixed;sketch=0;html=1;dashed=0;whitespace=wrap;fillColor=#2875E2;strokeColor=#ffffff;points=[[0.005,0.63,0],[0.1,0.2,0],[0.9,0.2,0],[0.5,0,0],[0.995,0.63,0],[0.72,0.99,0],[0.5,1,0],[0.28,0.99,0]];shape=mxgraph.kubernetes.icon2;kubernetesLabel=1;prIcon=api" vertex="1" parent="1">
          <mxGeometry x="-503.53999999999996" y="350" width="60" height="57.6" as="geometry" />
        </mxCell>
        <mxCell id="w6o17WLRnTiQN1vq8QD2-21" style="edgeStyle=orthogonalEdgeStyle;rounded=0;orthogonalLoop=1;jettySize=auto;html=1;exitX=0.995;exitY=0.63;exitDx=0;exitDy=0;exitPerimeter=0;" edge="1" parent="1" source="w6o17WLRnTiQN1vq8QD2-8" target="w6o17WLRnTiQN1vq8QD2-6">
          <mxGeometry relative="1" as="geometry" />
        </mxCell>
        <mxCell id="w6o17WLRnTiQN1vq8QD2-8" value="" style="aspect=fixed;sketch=0;html=1;dashed=0;whitespace=wrap;fillColor=#2875E2;strokeColor=#ffffff;points=[[0.005,0.63,0],[0.1,0.2,0],[0.9,0.2,0],[0.5,0,0],[0.995,0.63,0],[0.72,0.99,0],[0.5,1,0],[0.28,0.99,0]];shape=mxgraph.kubernetes.icon2;kubernetesLabel=1;prIcon=api" vertex="1" parent="1">
          <mxGeometry x="-510" y="460" width="72.92" height="70" as="geometry" />
        </mxCell>
        <mxCell id="w6o17WLRnTiQN1vq8QD2-9" value="" style="aspect=fixed;sketch=0;html=1;dashed=0;whitespace=wrap;fillColor=#2875E2;strokeColor=#ffffff;points=[[0.005,0.63,0],[0.1,0.2,0],[0.9,0.2,0],[0.5,0,0],[0.995,0.63,0],[0.72,0.99,0],[0.5,1,0],[0.28,0.99,0]];shape=mxgraph.kubernetes.icon2;kubernetesLabel=1;prIcon=api" vertex="1" parent="1">
          <mxGeometry x="-510.96000000000004" y="570" width="80.96" height="77.72" as="geometry" />
        </mxCell>
        <mxCell id="w6o17WLRnTiQN1vq8QD2-10" value="" style="aspect=fixed;sketch=0;html=1;dashed=0;whitespace=wrap;fillColor=#2875E2;strokeColor=#ffffff;points=[[0.005,0.63,0],[0.1,0.2,0],[0.9,0.2,0],[0.5,0,0],[0.995,0.63,0],[0.72,0.99,0],[0.5,1,0],[0.28,0.99,0]];shape=mxgraph.kubernetes.icon2;kubernetesLabel=1;prIcon=api" vertex="1" parent="1">
          <mxGeometry x="-510" y="670" width="71" height="68.16" as="geometry" />
        </mxCell>
        <mxCell id="w6o17WLRnTiQN1vq8QD2-11" value="User Service API" style="text;html=1;align=center;verticalAlign=middle;whiteSpace=wrap;rounded=0;" vertex="1" parent="1">
          <mxGeometry x="-504.5" y="310" width="60" height="30" as="geometry" />
        </mxCell>
        <mxCell id="w6o17WLRnTiQN1vq8QD2-13" value="Payment Service" style="text;html=1;align=center;verticalAlign=middle;whiteSpace=wrap;rounded=0;" vertex="1" parent="1">
          <mxGeometry x="-503.53999999999996" y="430" width="60" height="30" as="geometry" />
        </mxCell>
        <mxCell id="w6o17WLRnTiQN1vq8QD2-15" value="Encryption Service" style="text;html=1;align=center;verticalAlign=middle;whiteSpace=wrap;rounded=0;" vertex="1" parent="1">
          <mxGeometry x="-504.5" y="540" width="60" height="30" as="geometry" />
        </mxCell>
        <mxCell id="w6o17WLRnTiQN1vq8QD2-17" value="LMS API&lt;div&gt;&lt;br/&gt;&lt;/div&gt;" style="text;html=1;align=center;verticalAlign=middle;whiteSpace=wrap;rounded=0;" vertex="1" parent="1">
          <mxGeometry x="-500.47999999999996" y="660" width="60" height="30" as="geometry" />
        </mxCell>
        <mxCell id="w6o17WLRnTiQN1vq8QD2-19" value="API Gateway" style="text;html=1;align=center;verticalAlign=middle;whiteSpace=wrap;rounded=0;" vertex="1" parent="1">
          <mxGeometry x="-370" y="500" width="60" height="30" as="geometry" />
        </mxCell>
        <mxCell id="w6o17WLRnTiQN1vq8QD2-22" style="edgeStyle=orthogonalEdgeStyle;rounded=0;orthogonalLoop=1;jettySize=auto;html=1;entryX=0.5;entryY=1;entryDx=0;entryDy=0;entryPerimeter=0;" edge="1" parent="1" source="w6o17WLRnTiQN1vq8QD2-9" target="w6o17WLRnTiQN1vq8QD2-6">
          <mxGeometry relative="1" as="geometry">
            <Array as="points">
              <mxPoint x="-345" y="610" />
            </Array>
          </mxGeometry>
        </mxCell>
        <mxCell id="w6o17WLRnTiQN1vq8QD2-20" style="edgeStyle=orthogonalEdgeStyle;rounded=0;orthogonalLoop=1;jettySize=auto;html=1;" edge="1" parent="1" source="w6o17WLRnTiQN1vq8QD2-7" target="w6o17WLRnTiQN1vq8QD2-19">
          <mxGeometry relative="1" as="geometry" />
        </mxCell>
        <mxCell id="w6o17WLRnTiQN1vq8QD2-23" style="edgeStyle=orthogonalEdgeStyle;rounded=0;orthogonalLoop=1;jettySize=auto;html=1;exitX=0.995;exitY=0.63;exitDx=0;exitDy=0;exitPerimeter=0;entryX=1;entryY=0.21;entryDx=0;entryDy=0;entryPerimeter=0;" edge="1" parent="1" source="w6o17WLRnTiQN1vq8QD2-10" target="w6o17WLRnTiQN1vq8QD2-6">
          <mxGeometry relative="1" as="geometry" />
        </mxCell>
        <mxCell id="w6o17WLRnTiQN1vq8QD2-24" value="USER" style="shape=umlActor;verticalLabelPosition=bottom;verticalAlign=top;html=1;outlineConnect=0;" vertex="1" parent="1">
          <mxGeometry x="440" y="407.6" width="30" height="60" as="geometry" />
        </mxCell>
        <mxCell id="w6o17WLRnTiQN1vq8QD2-45" style="edgeStyle=orthogonalEdgeStyle;rounded=0;orthogonalLoop=1;jettySize=auto;html=1;" edge="1" parent="1" source="w6o17WLRnTiQN1vq8QD2-27" target="w6o17WLRnTiQN1vq8QD2-1">
          <mxGeometry relative="1" as="geometry" />
        </mxCell>
        <mxCell id="w6o17WLRnTiQN1vq8QD2-27" value="" style="verticalLabelPosition=bottom;aspect=fixed;html=1;shape=mxgraph.salesforce.analytics;" vertex="1" parent="1">
          <mxGeometry x="-504.5" y="770" width="60" height="58.8" as="geometry" />
        </mxCell>
        <mxCell id="w6o17WLRnTiQN1vq8QD2-31" value="Google Analytics&lt;div&gt;&lt;br/&gt;&lt;/div&gt;" style="text;html=1;align=center;verticalAlign=middle;whiteSpace=wrap;rounded=0;" vertex="1" parent="1">
          <mxGeometry x="-400" y="850" width="60" height="30" as="geometry" />
        </mxCell>
        <mxCell id="w6o17WLRnTiQN1vq8QD2-32" value="CRM&lt;div&gt;&lt;br/&gt;&lt;/div&gt;" style="shape=cylinder3;whiteSpace=wrap;html=1;boundedLbl=1;backgroundOutline=1;size=15;" vertex="1" parent="1">
          <mxGeometry x="-507" y="210" width="65" height="80" as="geometry" />
        </mxCell>
        <mxCell id="w6o17WLRnTiQN1vq8QD2-59" style="edgeStyle=orthogonalEdgeStyle;rounded=0;orthogonalLoop=1;jettySize=auto;html=1;" edge="1" parent="1" source="w6o17WLRnTiQN1vq8QD2-33">
          <mxGeometry relative="1" as="geometry">
            <mxPoint x="-40" y="460" as="targetPoint" />
          </mxGeometry>
        </mxCell>
        <mxCell id="w6o17WLRnTiQN1vq8QD2-33" value="a" style="sketch=0;pointerEvents=1;shadow=0;dashed=0;html=1;strokeColor=none;fillColor=#505050;labelPosition=center;verticalLabelPosition=bottom;verticalAlign=top;outlineConnect=0;align=center;shape=mxgraph.office.services.excel_services;" vertex="1" parent="1">
          <mxGeometry x="240" y="310" width="100" height="85" as="geometry" />
        </mxCell>
        <mxCell id="w6o17WLRnTiQN1vq8QD2-34" value="&lt;font style=&quot;font-size: 33px;&quot;&gt;LMS System &lt;br&gt;for Online Courses&lt;/font&gt;&lt;div style=&quot;font-size: 33px;&quot;&gt;&lt;br&gt;&lt;/div&gt;" style="text;strokeColor=none;fillColor=none;html=1;fontSize=24;fontStyle=1;verticalAlign=middle;align=center;" vertex="1" parent="1">
          <mxGeometry x="-210" y="80" width="260" height="90" as="geometry" />
        </mxCell>
        <mxCell id="w6o17WLRnTiQN1vq8QD2-38" value="Storage Level&lt;div&gt;&lt;br/&gt;&lt;/div&gt;" style="text;strokeColor=none;fillColor=none;html=1;fontSize=24;fontStyle=1;verticalAlign=middle;align=center;" vertex="1" parent="1">
          <mxGeometry x="-120" y="180" width="100" height="40" as="geometry" />
        </mxCell>
        <mxCell id="w6o17WLRnTiQN1vq8QD2-39" value="Business Level" style="text;strokeColor=none;fillColor=none;html=1;fontSize=24;fontStyle=1;verticalAlign=middle;align=center;" vertex="1" parent="1">
          <mxGeometry x="245" y="180" width="100" height="40" as="geometry" />
        </mxCell>
        <mxCell id="w6o17WLRnTiQN1vq8QD2-40" value="Storage Level&lt;div&gt;&lt;br/&gt;&lt;/div&gt;" style="text;strokeColor=none;fillColor=none;html=1;fontSize=24;fontStyle=1;verticalAlign=middle;align=center;" vertex="1" parent="1">
          <mxGeometry x="-603.54" y="180" width="100" height="40" as="geometry" />
        </mxCell>
        <mxCell id="w6o17WLRnTiQN1vq8QD2-44" style="edgeStyle=orthogonalEdgeStyle;rounded=0;orthogonalLoop=1;jettySize=auto;html=1;entryX=0.467;entryY=0.227;entryDx=0;entryDy=0;entryPerimeter=0;" edge="1" parent="1" source="w6o17WLRnTiQN1vq8QD2-32" target="w6o17WLRnTiQN1vq8QD2-1">
          <mxGeometry relative="1" as="geometry" />
        </mxCell>
        <mxCell id="w6o17WLRnTiQN1vq8QD2-49" value="&lt;br&gt;&lt;br&gt;БД&lt;br&gt;Пользователей&lt;div&gt;&lt;br&gt;&lt;/div&gt;" style="strokeWidth=2;html=1;shape=mxgraph.flowchart.database;whiteSpace=wrap;" vertex="1" parent="1">
          <mxGeometry x="-650" y="340" width="90" height="100" as="geometry" />
        </mxCell>
        <mxCell id="w6o17WLRnTiQN1vq8QD2-50" style="edgeStyle=orthogonalEdgeStyle;rounded=0;orthogonalLoop=1;jettySize=auto;html=1;exitX=0.005;exitY=0.63;exitDx=0;exitDy=0;exitPerimeter=0;entryX=1;entryY=0.5;entryDx=0;entryDy=0;entryPerimeter=0;" edge="1" parent="1" source="w6o17WLRnTiQN1vq8QD2-7" target="w6o17WLRnTiQN1vq8QD2-49">
          <mxGeometry relative="1" as="geometry" />
        </mxCell>
        <mxCell id="w6o17WLRnTiQN1vq8QD2-51" value="&lt;br&gt;&lt;br&gt;БД&lt;br&gt;финансов&lt;br&gt;&lt;div&gt;&lt;br&gt;&lt;/div&gt;" style="strokeWidth=2;html=1;shape=mxgraph.flowchart.database;whiteSpace=wrap;" vertex="1" parent="1">
          <mxGeometry x="-650" y="465" width="90" height="100" as="geometry" />
        </mxCell>
        <mxCell id="w6o17WLRnTiQN1vq8QD2-52" value="&lt;br&gt;&lt;br&gt;БД&lt;br&gt;Курсов" style="strokeWidth=2;html=1;shape=mxgraph.flowchart.database;whiteSpace=wrap;" vertex="1" parent="1">
          <mxGeometry x="-650" y="590" width="90" height="100" as="geometry" />
        </mxCell>
        <mxCell id="w6o17WLRnTiQN1vq8QD2-55" style="edgeStyle=orthogonalEdgeStyle;rounded=0;orthogonalLoop=1;jettySize=auto;html=1;exitX=0.005;exitY=0.63;exitDx=0;exitDy=0;exitPerimeter=0;entryX=0.5;entryY=1;entryDx=0;entryDy=0;entryPerimeter=0;" edge="1" parent="1" source="w6o17WLRnTiQN1vq8QD2-10" target="w6o17WLRnTiQN1vq8QD2-52">
          <mxGeometry relative="1" as="geometry" />
        </mxCell>
        <mxCell id="w6o17WLRnTiQN1vq8QD2-56" value="ETL" style="text;strokeColor=none;fillColor=none;html=1;fontSize=24;fontStyle=1;verticalAlign=middle;align=center;" vertex="1" parent="1">
          <mxGeometry x="-210" y="475" width="100" height="40" as="geometry" />
        </mxCell>
        <mxCell id="w6o17WLRnTiQN1vq8QD2-58" style="edgeStyle=orthogonalEdgeStyle;rounded=0;orthogonalLoop=1;jettySize=auto;html=1;entryX=0;entryY=0.5;entryDx=0;entryDy=0;entryPerimeter=0;" edge="1" parent="1" source="w6o17WLRnTiQN1vq8QD2-6" target="w6o17WLRnTiQN1vq8QD2-1">
          <mxGeometry relative="1" as="geometry" />
        </mxCell>
        <mxCell id="w6o17WLRnTiQN1vq8QD2-62" value="&lt;font style=&quot;font-size: 19px;&quot;&gt;Business Intelligence&lt;/font&gt;" style="image;html=1;image=img/lib/clip_art/finance/Pie_Chart_128x128.png" vertex="1" parent="1">
          <mxGeometry x="255" y="648" width="80" height="80" as="geometry" />
        </mxCell>
      </root>
    </mxGraphModel>
  </diagram>
</mxfile>
